<svg xmlns="http://www.w3.org/2000/svg" viewBox="0 0 192 192" fill="#000000" aria-hidden="true"><path d="M141.537 88.988a66.667 66.667 0 0 0-2.518-1.143c-1.482-27.307-16.403-42.94-41.457-43.1h-.34c-14.986 0-27.449 6.396-35.12 18.036l13.779 9.452c5.73-8.695 14.724-10.548 21.348-10.548h.229c8.249.052 14.474 2.452 18.503 7.13 2.932 3.404 4.893 8.114 5.864 14.063-7.314-1.243-15.224-1.626-23.68-1.14-23.82 1.371-39.134 15.264-38.106 34.568.522 9.792 5.4 18.216 13.735 23.719 7.047 4.652 16.124 6.927 25.557 6.412 12.458-.683 22.231-5.436 29.049-14.127 5.178-6.6 8.453-15.153 9.899-25.93 5.937 3.583 10.337 8.298 12.767 13.966 4.132 9.635 4.373 25.468-8.546 38.376-11.319 11.308-24.929 16.2-45.499 16.351-22.815-.169-40.06-7.484-51.255-21.742C35.196 139.482 29.81 120.412 29.609 96c.201-24.41 5.587-43.482 16.013-56.68C56.817 25.062 74.062 17.747 96.877 17.578c22.981.17 40.526 7.519 52.151 21.847 5.696 7.028 9.991 15.86 12.825 26.162l16.464-4.395c-3.435-12.682-8.838-23.612-16.207-32.697C147.236 9.83 126.011.241 96.935 0h-.115C67.798.244 46.81 10.184 32.43 29.546 19.633 46.776 13.034 70.737 12.811 95.932L12.81 96l.001.067c.223 25.198 6.822 49.157 19.62 66.387C46.81 181.816 67.798 191.755 96.82 192h.115c25.792-.179 43.989-6.937 58.999-21.943 19.616-19.62 19.054-44.214 12.609-59.354-4.677-10.962-13.582-19.857-25.766-25.715Zm-43.997 32.59c-10.444.589-21.299-4.103-21.823-13.853-.385-7.225 5.217-15.225 22.622-16.234 1.989-.115 3.939-.171 5.86-.171 6.298 0 12.226.602 17.633 1.748-2.013 25.144-13.918 27.989-24.292 28.51Z"/></svg>
